<svg xmlns="http://www.w3.org/2000/svg" width="69" height="51.938" viewBox="0 0 69 51.938">
  <metadata><?xpacket begin="﻿" id="W5M0MpCehiHzreSzNTczkc9d"?>
<x:xmpmeta xmlns:x="adobe:ns:meta/" x:xmptk="Adobe XMP Core 5.6-c138 79.159824, 2016/09/14-01:09:01        ">
   <rdf:RDF xmlns:rdf="http://www.w3.org/1999/02/22-rdf-syntax-ns#">
      <rdf:Description rdf:about=""/>
   </rdf:RDF>
</x:xmpmeta>
                                                                                                    
                                                                                                    
                                                                                                    
                                                                                                    
                                                                                                    
                                                                                                    
                                                                                                    
                                                                                                    
                                                                                                    
                                                                                                    
                                                                                                    
                                                                                                    
                                                                                                    
                                                                                                    
                                                                                                    
                                                                                                    
                                                                                                    
                                                                                                    
                                                                                                    
                                                                                                    
                           
<?xpacket end="w"?></metadata>
<defs>
    <style>
      .cls-1 {
        fill: #feffff;
        fill-rule: evenodd;
        opacity: 0.1;
      }
    </style>
  </defs>
  <path id="_" data-name="“" class="cls-1" d="M188.029,247.808c0,12.214,8.181,19.171,17.134,19.171a15.432,15.432,0,0,0,15.127-15.461c0-8.194-5.711-13.6-12.812-13.6a10.07,10.07,0,0,0-3.705.619c1.853-5.875,8.644-12.523,13.584-14.842l-10.651-8.658C195.129,223.226,188.029,234.667,188.029,247.808Zm36.737,0c0,12.214,8.027,19.171,16.98,19.171a15.564,15.564,0,0,0,15.281-15.461c0-8.194-5.711-13.6-12.812-13.6a11.767,11.767,0,0,0-3.858.619c1.852-5.875,8.8-12.523,13.737-14.842l-10.805-8.658C231.867,223.226,224.766,234.667,224.766,247.808Z" transform="translate(-188.031 -215.031)"/>
</svg>
